<svg width="109" height="101" viewBox="0 0 109 101" fill="none" xmlns="http://www.w3.org/2000/svg">
<path fill-rule="evenodd" clip-rule="evenodd" d="M29.2347 0.567281C27.8227 0.950961 25.7576 3.79427 24.5381 7.03385C23.6495 9.39466 22.0585 15.9075 21.5162 19.4048C21.4684 19.7132 21.402 20.1038 21.3687 20.2728C20.3599 25.391 19.7247 32.679 19.4316 42.4983C18.8931 60.5204 19.2827 78.6025 19.2827 96.6308V100.658H55.5464H91.8101L91.7172 97.5835C91.666 95.8927 91.4822 90.131 91.3088 84.7799C90.2429 51.9298 89.582 46.295 88.075 33.9625C87.7042 30.928 86.7331 24.7923 86.3232 22.8948C85.4398 18.8049 83.8588 12.9567 82.8655 10.1042C82.19 8.16448 81.1981 6.19502 80.5139 5.43547C78.6504 3.36661 76.6418 4.19574 74.1423 8.06553C73.7054 8.74189 73.0559 9.74593 72.6991 10.2969C72.3422 10.8476 71.3668 12.5078 70.5313 13.9861C69.696 15.4642 68.4642 17.6438 67.7939 18.8292C66.3475 21.3881 65.3654 22.7358 64.5462 23.286C63.9832 23.6642 63.8739 23.6847 62.7732 23.6195C62.1281 23.5813 61.0169 23.5159 60.3039 23.4743C59.5908 23.4327 57.0843 23.3339 54.7339 23.2546C44.8916 22.9226 41.1577 22.5154 40.0637 21.6549C39.383 21.1195 39.4987 21.4988 37.4607 13.1234C36.0398 7.28413 34.6082 3.94589 32.6024 1.79456C31.5611 0.677669 30.394 0.252322 29.2347 0.567281Z" fill="#232323"/>
<path d="M107.107 68.1747L79.908 67.3066" stroke="#232323" stroke-width="3" stroke-linecap="round"/>
<path d="M54.2281 66.5835H52.2026" stroke="#696969" stroke-width="3" stroke-linecap="round"/>
<path d="M2.00006 65.5703L30.137 69.3319" stroke="#232323" stroke-width="3" stroke-linecap="round"/>
<path d="M103.49 74.7573L76.1462 71.3574" stroke="#232323" stroke-width="3" stroke-linecap="round"/>
<path fill-rule="evenodd" clip-rule="evenodd" d="M38.2413 39.1597C40.9956 39.738 43.4657 41.7617 45.4761 45.0874C47.6334 48.6558 48.0659 51.4514 46.9603 54.6805C46.3673 56.4124 45.6732 57.4799 44.3605 58.6778C41.8107 61.0049 38.1154 62.2294 34.9502 61.796C33.5483 61.604 32.8552 61.3631 31.6586 60.6516C28.9061 59.0152 26.7382 55.4919 25.8739 51.2507C25.3747 48.8016 25.5158 46.8387 26.3059 45.2361C27.8384 42.1277 28.384 41.4424 30.0204 40.5702C32.7244 39.1289 35.6795 38.622 38.2413 39.1597Z" fill="#2FFFE3"/>
<path d="M83.022 46.2322C81.2948 42.7169 78.5945 40.337 75.4951 39.5984C73.2468 39.0627 71.1221 39.2133 68.189 40.1162C66.12 40.753 64.9002 41.3014 63.5418 42.2052C61.3886 43.6377 59.7422 45.8754 59.2241 48.0735C58.9087 49.4113 58.9413 51.7766 59.2942 53.1775C59.6606 54.6315 60.6676 56.7236 61.4987 57.7579C63.261 59.9508 66.0408 61.5162 69.491 62.2589C70.9175 62.5661 74.3238 62.4865 75.7121 62.1137C78.0443 61.4874 80.5201 59.9437 81.9145 58.2464C83.5529 56.2521 84.4435 53.4097 84.2686 50.7335C84.1538 48.9763 83.8741 47.9666 83.022 46.2322Z" fill="#2FFFE3"/>
<path d="M5 73L33 74" stroke="#232323" stroke-width="3" stroke-linecap="round"/>
<path fill-rule="evenodd" clip-rule="evenodd" d="M29.0828 52.5746C30.3632 56.325 32.5864 58.6271 35.3081 59.0209C38.53 59.4872 42.7238 57.368 44.0099 54.6236C44.4472 53.6906 44.813 52.1689 44.8169 51.2667C44.8267 48.9794 42.4388 44.7398 40.1878 43.0475C34.2326 38.571 25.6546 45.2434 29.0828 52.5746Z" fill="black"/>
<path d="M71.8066 59.6963C68.5377 59.4995 65.3196 58.0527 63.7448 56.0718C59.7052 50.991 62.9088 42.7118 71.6569 42.0787C72.0547 42.0169 72.836 42.0008 73.393 42.0432C76.1142 42.2498 78.1612 43.572 79.8831 46.2352C81.1262 48.1578 81.4899 49.3386 81.4793 51.4173C81.4727 52.7421 81.4093 53.1837 81.1014 54.0528C79.847 57.5933 75.9705 59.947 71.8066 59.6963Z" fill="black"/>
<path d="M67.3935 44.5265C67.3935 42.0118 64.2954 42.6474 62.7463 43.2795C62.3664 43.6952 61.6064 44.9094 61.6064 46.4406C61.6064 48.3548 64.4123 49.6017 65.6398 48.548C66.8674 47.4943 67.3935 47.67 67.3935 44.5265Z" fill="#D9D9D9"/>
<path d="M35.1308 44.8642C35.1308 41.8816 31.4905 42.6355 29.6704 43.3852C29.224 43.8782 28.3311 45.3183 28.3311 47.1345C28.3311 49.4047 31.6279 50.8837 33.0703 49.6339C34.5126 48.3842 35.1308 48.5925 35.1308 44.8642Z" fill="#D9D9D9"/>
</svg>
