<svg width="61" height="61" viewBox="0 0 61 61" fill="none" xmlns="http://www.w3.org/2000/svg">
<path d="M47.8848 17.814C45.7641 7.50802 35.6902 0.872586 25.3843 2.99327C16.5594 4.80924 10.2133 12.5588 10.1729 21.5683C10.1729 21.9976 10.1906 22.4371 10.2287 22.9019C3.95061 23.5665 -0.600103 29.1946 0.0644407 35.4727C0.680403 41.2917 5.59131 45.7061 11.4429 45.7004H12.7765C12.746 45.2788 12.713 44.8596 12.713 44.4303C12.713 35.3113 20.1054 27.9188 29.2245 27.9188C38.3435 27.9188 45.7358 35.3113 45.7358 44.4303C45.7358 44.8595 45.7028 45.2786 45.6723 45.7004H47.0059C54.7135 45.7215 60.9788 39.4903 60.9999 31.7826C61.0201 24.3869 55.2673 18.2596 47.8848 17.814Z" fill="#CCE3FD"/>
<path d="M29.2246 58.4014C36.9406 58.4014 43.1957 52.1463 43.1957 44.4302C43.1957 36.7142 36.9406 30.4591 29.2246 30.4591C21.5085 30.4591 15.2534 36.7142 15.2534 44.4302C15.2534 52.1463 21.5085 58.4014 29.2246 58.4014Z" fill="#00AF98"/>
<path d="M29.2245 53.3211C28.523 53.3211 27.9543 52.7524 27.9543 52.0509V36.8096C27.9543 36.1082 28.523 35.5395 29.2245 35.5395C29.9259 35.5395 30.4946 36.1082 30.4946 36.8096V52.0509C30.4945 52.7524 29.9259 53.3211 29.2245 53.3211Z" fill="#F5F9F9"/>
<path d="M34.3049 43.1602C34.138 43.1605 33.9726 43.1279 33.8183 43.0643C33.664 43.0007 33.5238 42.9072 33.4056 42.7893L29.2244 38.6056L25.0432 42.7893C24.5387 43.2767 23.7346 43.2626 23.2472 42.7581C23.0185 42.5213 22.8906 42.205 22.8906 41.8757C22.8906 41.5465 23.0185 41.2301 23.2472 40.9933L28.3277 35.9129C28.8236 35.4171 29.6276 35.4171 30.1237 35.9129L35.2041 40.9933C35.6993 41.4901 35.6981 42.2943 35.2013 42.7896C34.9633 43.0269 34.641 43.1602 34.3049 43.1602Z" fill="#F5F9F9"/>
</svg>
